<mxfile host="app.diagrams.net" modified="2022-04-20T08:01:18.664Z" agent="5.0 (Windows NT 10.0; Win64; x64) AppleWebKit/537.36 (KHTML, like Gecko) Chrome/100.0.4896.127 Safari/537.36" etag="sg1WPJB9ODboOMyvAv6c" version="17.4.5" type="github">
  <diagram id="V2zGZrx1W2stLBBZ37LN" name="Page-1">
    <mxGraphModel dx="1038" dy="579" grid="1" gridSize="10" guides="1" tooltips="1" connect="1" arrows="1" fold="1" page="1" pageScale="1" pageWidth="827" pageHeight="1169" math="0" shadow="0">
      <root>
        <mxCell id="0" />
        <mxCell id="1" parent="0" />
        <mxCell id="ApELSlaMRQJvpLbUcIeK-8" style="edgeStyle=orthogonalEdgeStyle;rounded=0;orthogonalLoop=1;jettySize=auto;html=1;exitX=0.5;exitY=1;exitDx=0;exitDy=0;entryX=0.5;entryY=0;entryDx=0;entryDy=0;fontSize=16;" parent="1" source="ApELSlaMRQJvpLbUcIeK-1" target="ApELSlaMRQJvpLbUcIeK-2" edge="1">
          <mxGeometry relative="1" as="geometry" />
        </mxCell>
        <mxCell id="ApELSlaMRQJvpLbUcIeK-1" value="爬取&lt;b&gt;电影&lt;/b&gt;信息" style="rounded=1;whiteSpace=wrap;html=1;fillColor=#e1d5e7;strokeColor=#9673a6;fontSize=16;" parent="1" vertex="1">
          <mxGeometry x="120" y="90" width="120" height="60" as="geometry" />
        </mxCell>
        <mxCell id="ApELSlaMRQJvpLbUcIeK-10" style="edgeStyle=orthogonalEdgeStyle;rounded=0;orthogonalLoop=1;jettySize=auto;html=1;exitX=0.5;exitY=1;exitDx=0;exitDy=0;entryX=0.5;entryY=0;entryDx=0;entryDy=0;fontSize=16;" parent="1" source="ApELSlaMRQJvpLbUcIeK-2" target="ApELSlaMRQJvpLbUcIeK-9" edge="1">
          <mxGeometry relative="1" as="geometry" />
        </mxCell>
        <mxCell id="ApELSlaMRQJvpLbUcIeK-2" value="爬取&lt;b&gt;影评&lt;/b&gt;信息" style="rounded=1;whiteSpace=wrap;html=1;fillColor=#e1d5e7;strokeColor=#9673a6;fontSize=16;" parent="1" vertex="1">
          <mxGeometry x="120" y="200" width="120" height="60" as="geometry" />
        </mxCell>
        <mxCell id="ApELSlaMRQJvpLbUcIeK-16" style="edgeStyle=orthogonalEdgeStyle;rounded=0;orthogonalLoop=1;jettySize=auto;html=1;exitX=0.5;exitY=1;exitDx=0;exitDy=0;entryX=0.5;entryY=0;entryDx=0;entryDy=0;fontSize=16;" parent="1" source="ApELSlaMRQJvpLbUcIeK-9" target="ApELSlaMRQJvpLbUcIeK-11" edge="1">
          <mxGeometry relative="1" as="geometry" />
        </mxCell>
        <mxCell id="ApELSlaMRQJvpLbUcIeK-20" style="edgeStyle=orthogonalEdgeStyle;rounded=0;orthogonalLoop=1;jettySize=auto;html=1;exitX=1;exitY=0.5;exitDx=0;exitDy=0;entryX=0;entryY=0.5;entryDx=0;entryDy=0;fontSize=16;" parent="1" source="ApELSlaMRQJvpLbUcIeK-9" target="ApELSlaMRQJvpLbUcIeK-19" edge="1">
          <mxGeometry relative="1" as="geometry" />
        </mxCell>
        <mxCell id="ApELSlaMRQJvpLbUcIeK-9" value="入MySQL&lt;br&gt;数据库" style="rounded=1;whiteSpace=wrap;html=1;fillColor=#e1d5e7;strokeColor=#9673a6;fontSize=16;" parent="1" vertex="1">
          <mxGeometry x="120" y="310" width="120" height="60" as="geometry" />
        </mxCell>
        <mxCell id="ApELSlaMRQJvpLbUcIeK-18" style="edgeStyle=orthogonalEdgeStyle;rounded=0;orthogonalLoop=1;jettySize=auto;html=1;exitX=0;exitY=0.5;exitDx=0;exitDy=0;entryX=0;entryY=0.5;entryDx=0;entryDy=0;fontSize=16;" parent="1" source="ApELSlaMRQJvpLbUcIeK-11" target="ApELSlaMRQJvpLbUcIeK-9" edge="1">
          <mxGeometry relative="1" as="geometry">
            <Array as="points">
              <mxPoint x="50" y="450" />
              <mxPoint x="50" y="340" />
            </Array>
          </mxGeometry>
        </mxCell>
        <mxCell id="ApELSlaMRQJvpLbUcIeK-11" value="数据清洗" style="rounded=1;whiteSpace=wrap;html=1;fillColor=#e1d5e7;strokeColor=#9673a6;fontSize=16;" parent="1" vertex="1">
          <mxGeometry x="120" y="420" width="120" height="60" as="geometry" />
        </mxCell>
        <mxCell id="ApELSlaMRQJvpLbUcIeK-13" value="" style="edgeStyle=orthogonalEdgeStyle;rounded=0;orthogonalLoop=1;jettySize=auto;html=1;fontSize=16;" parent="1" source="ApELSlaMRQJvpLbUcIeK-12" target="ApELSlaMRQJvpLbUcIeK-11" edge="1">
          <mxGeometry relative="1" as="geometry" />
        </mxCell>
        <mxCell id="ApELSlaMRQJvpLbUcIeK-12" value="Pandas清洗数据" style="text;html=1;strokeColor=none;fillColor=none;align=center;verticalAlign=middle;whiteSpace=wrap;rounded=0;fontSize=16;" parent="1" vertex="1">
          <mxGeometry x="140" y="520" width="80" height="45" as="geometry" />
        </mxCell>
        <mxCell id="ApELSlaMRQJvpLbUcIeK-15" value="" style="edgeStyle=orthogonalEdgeStyle;rounded=0;orthogonalLoop=1;jettySize=auto;html=1;fontSize=16;" parent="1" source="ApELSlaMRQJvpLbUcIeK-14" target="ApELSlaMRQJvpLbUcIeK-1" edge="1">
          <mxGeometry relative="1" as="geometry" />
        </mxCell>
        <mxCell id="ApELSlaMRQJvpLbUcIeK-14" value="Scrapy" style="text;html=1;strokeColor=none;fillColor=none;align=center;verticalAlign=middle;whiteSpace=wrap;rounded=0;fontSize=16;" parent="1" vertex="1">
          <mxGeometry x="10" y="97.5" width="80" height="45" as="geometry" />
        </mxCell>
        <mxCell id="ApELSlaMRQJvpLbUcIeK-24" style="edgeStyle=orthogonalEdgeStyle;rounded=0;orthogonalLoop=1;jettySize=auto;html=1;exitX=1;exitY=0.5;exitDx=0;exitDy=0;entryX=0;entryY=0.5;entryDx=0;entryDy=0;fontSize=16;" parent="1" source="ApELSlaMRQJvpLbUcIeK-19" target="ApELSlaMRQJvpLbUcIeK-21" edge="1">
          <mxGeometry relative="1" as="geometry" />
        </mxCell>
        <mxCell id="ApELSlaMRQJvpLbUcIeK-19" value="LSTM/RNN进行影评情感分析" style="rounded=1;whiteSpace=wrap;html=1;fillColor=#1ba1e2;strokeColor=#006EAF;fontSize=16;fontColor=#ffffff;" parent="1" vertex="1">
          <mxGeometry x="320" y="310" width="120" height="60" as="geometry" />
        </mxCell>
        <mxCell id="ApELSlaMRQJvpLbUcIeK-21" value="可视化平台" style="rounded=1;whiteSpace=wrap;html=1;fillColor=#60a917;strokeColor=#2D7600;fontSize=16;fontColor=#ffffff;" parent="1" vertex="1">
          <mxGeometry x="490" y="310" width="120" height="60" as="geometry" />
        </mxCell>
        <mxCell id="ApELSlaMRQJvpLbUcIeK-23" style="edgeStyle=orthogonalEdgeStyle;rounded=0;orthogonalLoop=1;jettySize=auto;html=1;exitX=0.5;exitY=1;exitDx=0;exitDy=0;entryX=0.5;entryY=0;entryDx=0;entryDy=0;fontSize=16;" parent="1" source="ApELSlaMRQJvpLbUcIeK-22" target="ApELSlaMRQJvpLbUcIeK-19" edge="1">
          <mxGeometry relative="1" as="geometry" />
        </mxCell>
        <mxCell id="ApELSlaMRQJvpLbUcIeK-22" value="读取预先&lt;br&gt;训练的模型" style="rounded=1;whiteSpace=wrap;html=1;fillColor=#e1d5e7;strokeColor=#9673a6;fontSize=16;" parent="1" vertex="1">
          <mxGeometry x="320" y="190" width="120" height="60" as="geometry" />
        </mxCell>
        <mxCell id="ApELSlaMRQJvpLbUcIeK-25" value="基于深度学习（LSTM/RNN）的豆瓣影评情感分析大数据平台" style="text;html=1;strokeColor=none;fillColor=none;align=center;verticalAlign=middle;whiteSpace=wrap;rounded=0;fontSize=25;" parent="1" vertex="1">
          <mxGeometry x="30" y="20" width="730" height="30" as="geometry" />
        </mxCell>
        <mxCell id="ApELSlaMRQJvpLbUcIeK-27" value="" style="edgeStyle=orthogonalEdgeStyle;rounded=0;orthogonalLoop=1;jettySize=auto;html=1;fontSize=25;" parent="1" source="ApELSlaMRQJvpLbUcIeK-26" target="ApELSlaMRQJvpLbUcIeK-19" edge="1">
          <mxGeometry relative="1" as="geometry" />
        </mxCell>
        <mxCell id="ApELSlaMRQJvpLbUcIeK-26" value="深度学习模块" style="text;html=1;strokeColor=none;fillColor=none;align=center;verticalAlign=middle;whiteSpace=wrap;rounded=0;fontSize=16;" parent="1" vertex="1">
          <mxGeometry x="340" y="427.5" width="80" height="45" as="geometry" />
        </mxCell>
        <mxCell id="ApELSlaMRQJvpLbUcIeK-29" value="" style="edgeStyle=orthogonalEdgeStyle;rounded=0;orthogonalLoop=1;jettySize=auto;html=1;fontSize=25;" parent="1" source="ApELSlaMRQJvpLbUcIeK-28" target="ApELSlaMRQJvpLbUcIeK-21" edge="1">
          <mxGeometry relative="1" as="geometry" />
        </mxCell>
        <mxCell id="ApELSlaMRQJvpLbUcIeK-28" value="Vue+Flask" style="text;html=1;strokeColor=none;fillColor=none;align=center;verticalAlign=middle;whiteSpace=wrap;rounded=0;fontSize=16;" parent="1" vertex="1">
          <mxGeometry x="510" y="427.5" width="80" height="45" as="geometry" />
        </mxCell>
        <mxCell id="vfVgQjEAgglERbip78DY-22" style="edgeStyle=orthogonalEdgeStyle;rounded=0;orthogonalLoop=1;jettySize=auto;html=1;exitX=1;exitY=0.5;exitDx=0;exitDy=0;entryX=0;entryY=0.5;entryDx=0;entryDy=0;" parent="1" source="vfVgQjEAgglERbip78DY-31" target="vfVgQjEAgglERbip78DY-34" edge="1">
          <mxGeometry relative="1" as="geometry" />
        </mxCell>
        <mxCell id="vfVgQjEAgglERbip78DY-23" style="edgeStyle=orthogonalEdgeStyle;rounded=0;orthogonalLoop=1;jettySize=auto;html=1;exitX=1;exitY=0.5;exitDx=0;exitDy=0;entryX=0;entryY=0.5;entryDx=0;entryDy=0;" parent="1" source="vfVgQjEAgglERbip78DY-31" target="vfVgQjEAgglERbip78DY-33" edge="1">
          <mxGeometry relative="1" as="geometry" />
        </mxCell>
        <mxCell id="vfVgQjEAgglERbip78DY-24" style="edgeStyle=orthogonalEdgeStyle;rounded=0;orthogonalLoop=1;jettySize=auto;html=1;exitX=1;exitY=0.5;exitDx=0;exitDy=0;entryX=0;entryY=0.5;entryDx=0;entryDy=0;" parent="1" source="vfVgQjEAgglERbip78DY-31" target="vfVgQjEAgglERbip78DY-36" edge="1">
          <mxGeometry relative="1" as="geometry" />
        </mxCell>
        <mxCell id="vfVgQjEAgglERbip78DY-25" style="edgeStyle=orthogonalEdgeStyle;rounded=0;orthogonalLoop=1;jettySize=auto;html=1;exitX=1;exitY=0.5;exitDx=0;exitDy=0;entryX=0;entryY=0.5;entryDx=0;entryDy=0;" parent="1" source="vfVgQjEAgglERbip78DY-31" target="vfVgQjEAgglERbip78DY-40" edge="1">
          <mxGeometry relative="1" as="geometry" />
        </mxCell>
        <mxCell id="vfVgQjEAgglERbip78DY-26" style="edgeStyle=orthogonalEdgeStyle;rounded=0;orthogonalLoop=1;jettySize=auto;html=1;exitX=1;exitY=0.5;exitDx=0;exitDy=0;entryX=0;entryY=0.5;entryDx=0;entryDy=0;" parent="1" source="vfVgQjEAgglERbip78DY-31" target="vfVgQjEAgglERbip78DY-41" edge="1">
          <mxGeometry relative="1" as="geometry" />
        </mxCell>
        <mxCell id="vfVgQjEAgglERbip78DY-27" style="edgeStyle=orthogonalEdgeStyle;rounded=0;orthogonalLoop=1;jettySize=auto;html=1;exitX=1;exitY=0.5;exitDx=0;exitDy=0;entryX=0;entryY=0.5;entryDx=0;entryDy=0;" parent="1" source="vfVgQjEAgglERbip78DY-31" target="vfVgQjEAgglERbip78DY-46" edge="1">
          <mxGeometry relative="1" as="geometry" />
        </mxCell>
        <mxCell id="vfVgQjEAgglERbip78DY-28" style="edgeStyle=orthogonalEdgeStyle;rounded=0;orthogonalLoop=1;jettySize=auto;html=1;exitX=1;exitY=0.5;exitDx=0;exitDy=0;entryX=0;entryY=0.5;entryDx=0;entryDy=0;" parent="1" source="vfVgQjEAgglERbip78DY-31" target="vfVgQjEAgglERbip78DY-53" edge="1">
          <mxGeometry relative="1" as="geometry" />
        </mxCell>
        <mxCell id="vfVgQjEAgglERbip78DY-29" style="edgeStyle=orthogonalEdgeStyle;rounded=0;orthogonalLoop=1;jettySize=auto;html=1;exitX=1;exitY=0.5;exitDx=0;exitDy=0;entryX=0;entryY=0.5;entryDx=0;entryDy=0;" parent="1" source="vfVgQjEAgglERbip78DY-31" target="vfVgQjEAgglERbip78DY-57" edge="1">
          <mxGeometry relative="1" as="geometry" />
        </mxCell>
        <mxCell id="vfVgQjEAgglERbip78DY-31" value="豆瓣图书大数据&lt;br&gt;功能模块" style="rounded=1;whiteSpace=wrap;html=1;fontSize=15;fillColor=#008a00;strokeColor=#005700;fontColor=#ffffff;" parent="1" vertex="1">
          <mxGeometry x="150" y="860" width="120" height="60" as="geometry" />
        </mxCell>
        <mxCell id="vfVgQjEAgglERbip78DY-32" style="edgeStyle=orthogonalEdgeStyle;rounded=0;orthogonalLoop=1;jettySize=auto;html=1;exitX=1;exitY=0.5;exitDx=0;exitDy=0;entryX=0;entryY=0.5;entryDx=0;entryDy=0;" parent="1" source="vfVgQjEAgglERbip78DY-33" target="vfVgQjEAgglERbip78DY-38" edge="1">
          <mxGeometry relative="1" as="geometry" />
        </mxCell>
        <mxCell id="vfVgQjEAgglERbip78DY-70" style="edgeStyle=orthogonalEdgeStyle;rounded=0;orthogonalLoop=1;jettySize=auto;html=1;exitX=1;exitY=0.5;exitDx=0;exitDy=0;entryX=0;entryY=0.5;entryDx=0;entryDy=0;" parent="1" source="vfVgQjEAgglERbip78DY-33" target="vfVgQjEAgglERbip78DY-49" edge="1">
          <mxGeometry relative="1" as="geometry" />
        </mxCell>
        <mxCell id="vfVgQjEAgglERbip78DY-33" value="首页" style="rounded=1;whiteSpace=wrap;html=1;fontSize=15;fillColor=#d5e8d4;strokeColor=#82b366;" parent="1" vertex="1">
          <mxGeometry x="350" y="740" width="120" height="40" as="geometry" />
        </mxCell>
        <mxCell id="vfVgQjEAgglERbip78DY-34" value="登录与注册" style="rounded=1;whiteSpace=wrap;html=1;fontSize=15;fillColor=#d5e8d4;strokeColor=#82b366;" parent="1" vertex="1">
          <mxGeometry x="350" y="670" width="120" height="40" as="geometry" />
        </mxCell>
        <mxCell id="vfVgQjEAgglERbip78DY-35" style="edgeStyle=orthogonalEdgeStyle;rounded=0;orthogonalLoop=1;jettySize=auto;html=1;exitX=1;exitY=0.5;exitDx=0;exitDy=0;entryX=0;entryY=0.5;entryDx=0;entryDy=0;" parent="1" source="vfVgQjEAgglERbip78DY-36" target="vfVgQjEAgglERbip78DY-44" edge="1">
          <mxGeometry relative="1" as="geometry" />
        </mxCell>
        <mxCell id="vfVgQjEAgglERbip78DY-36" value="图书分析" style="rounded=1;whiteSpace=wrap;html=1;fontSize=15;fillColor=#d5e8d4;strokeColor=#82b366;" parent="1" vertex="1">
          <mxGeometry x="350" y="870" width="120" height="40" as="geometry" />
        </mxCell>
        <mxCell id="vfVgQjEAgglERbip78DY-38" value="图书卡片" style="rounded=1;whiteSpace=wrap;html=1;fontSize=15;fillColor=#d5e8d4;strokeColor=#82b366;" parent="1" vertex="1">
          <mxGeometry x="520" y="740" width="120" height="40" as="geometry" />
        </mxCell>
        <mxCell id="vfVgQjEAgglERbip78DY-39" style="edgeStyle=orthogonalEdgeStyle;rounded=0;orthogonalLoop=1;jettySize=auto;html=1;exitX=1;exitY=0.5;exitDx=0;exitDy=0;entryX=0;entryY=0.5;entryDx=0;entryDy=0;" parent="1" source="vfVgQjEAgglERbip78DY-40" target="vfVgQjEAgglERbip78DY-42" edge="1">
          <mxGeometry relative="1" as="geometry" />
        </mxCell>
        <mxCell id="vfVgQjEAgglERbip78DY-40" value="图书摘要" style="rounded=1;whiteSpace=wrap;html=1;fontSize=15;fillColor=#d5e8d4;strokeColor=#82b366;" parent="1" vertex="1">
          <mxGeometry x="350" y="940" width="120" height="40" as="geometry" />
        </mxCell>
        <mxCell id="vfVgQjEAgglERbip78DY-41" value="身份证识别" style="rounded=1;whiteSpace=wrap;html=1;fontSize=15;fillColor=#fff2cc;strokeColor=#d6b656;" parent="1" vertex="1">
          <mxGeometry x="350" y="1020" width="120" height="40" as="geometry" />
        </mxCell>
        <mxCell id="vfVgQjEAgglERbip78DY-42" value="词云" style="rounded=1;whiteSpace=wrap;html=1;fontSize=15;fillColor=#d5e8d4;strokeColor=#82b366;" parent="1" vertex="1">
          <mxGeometry x="520" y="940" width="120" height="40" as="geometry" />
        </mxCell>
        <mxCell id="vfVgQjEAgglERbip78DY-43" style="edgeStyle=orthogonalEdgeStyle;rounded=0;orthogonalLoop=1;jettySize=auto;html=1;exitX=1;exitY=0.5;exitDx=0;exitDy=0;entryX=0;entryY=0.5;entryDx=0;entryDy=0;" parent="1" source="vfVgQjEAgglERbip78DY-44" target="vfVgQjEAgglERbip78DY-60" edge="1">
          <mxGeometry relative="1" as="geometry" />
        </mxCell>
        <mxCell id="vfVgQjEAgglERbip78DY-74" style="edgeStyle=orthogonalEdgeStyle;rounded=0;orthogonalLoop=1;jettySize=auto;html=1;exitX=1;exitY=0.5;exitDx=0;exitDy=0;entryX=0;entryY=0.5;entryDx=0;entryDy=0;" parent="1" source="vfVgQjEAgglERbip78DY-44" target="vfVgQjEAgglERbip78DY-71" edge="1">
          <mxGeometry relative="1" as="geometry" />
        </mxCell>
        <mxCell id="vfVgQjEAgglERbip78DY-75" style="edgeStyle=orthogonalEdgeStyle;rounded=0;orthogonalLoop=1;jettySize=auto;html=1;exitX=1;exitY=0.5;exitDx=0;exitDy=0;entryX=0;entryY=0.5;entryDx=0;entryDy=0;" parent="1" source="vfVgQjEAgglERbip78DY-44" target="vfVgQjEAgglERbip78DY-72" edge="1">
          <mxGeometry relative="1" as="geometry" />
        </mxCell>
        <mxCell id="vfVgQjEAgglERbip78DY-44" value="Echarts分析图" style="rounded=1;whiteSpace=wrap;html=1;fontSize=15;fillColor=#d5e8d4;strokeColor=#82b366;" parent="1" vertex="1">
          <mxGeometry x="520" y="870" width="120" height="40" as="geometry" />
        </mxCell>
        <mxCell id="vfVgQjEAgglERbip78DY-68" style="edgeStyle=orthogonalEdgeStyle;rounded=0;orthogonalLoop=1;jettySize=auto;html=1;exitX=1;exitY=0.5;exitDx=0;exitDy=0;entryX=0;entryY=0.5;entryDx=0;entryDy=0;" parent="1" source="vfVgQjEAgglERbip78DY-46" target="vfVgQjEAgglERbip78DY-67" edge="1">
          <mxGeometry relative="1" as="geometry" />
        </mxCell>
        <mxCell id="vfVgQjEAgglERbip78DY-46" value="图书库" style="rounded=1;whiteSpace=wrap;html=1;fontSize=15;fillColor=#d5e8d4;strokeColor=#82b366;" parent="1" vertex="1">
          <mxGeometry x="350" y="800" width="120" height="40" as="geometry" />
        </mxCell>
        <mxCell id="vfVgQjEAgglERbip78DY-47" style="edgeStyle=orthogonalEdgeStyle;rounded=0;orthogonalLoop=1;jettySize=auto;html=1;exitX=1;exitY=0.5;exitDx=0;exitDy=0;entryX=0;entryY=0.5;entryDx=0;entryDy=0;" parent="1" source="vfVgQjEAgglERbip78DY-49" target="vfVgQjEAgglERbip78DY-54" edge="1">
          <mxGeometry relative="1" as="geometry" />
        </mxCell>
        <mxCell id="vfVgQjEAgglERbip78DY-48" style="edgeStyle=orthogonalEdgeStyle;rounded=0;orthogonalLoop=1;jettySize=auto;html=1;exitX=1;exitY=0.5;exitDx=0;exitDy=0;entryX=0;entryY=0.75;entryDx=0;entryDy=0;" parent="1" source="vfVgQjEAgglERbip78DY-49" target="vfVgQjEAgglERbip78DY-55" edge="1">
          <mxGeometry relative="1" as="geometry" />
        </mxCell>
        <mxCell id="vfVgQjEAgglERbip78DY-49" value="协同过滤&lt;br&gt;推荐算法" style="rounded=1;whiteSpace=wrap;html=1;fontSize=15;fillColor=#d5e8d4;strokeColor=#82b366;" parent="1" vertex="1">
          <mxGeometry x="520" y="670" width="120" height="40" as="geometry" />
        </mxCell>
        <mxCell id="vfVgQjEAgglERbip78DY-50" value="百度AI图像识别" style="rounded=1;whiteSpace=wrap;html=1;fontSize=15;fillColor=#fff2cc;strokeColor=#d6b656;" parent="1" vertex="1">
          <mxGeometry x="520" y="1020" width="120" height="40" as="geometry" />
        </mxCell>
        <mxCell id="vfVgQjEAgglERbip78DY-51" style="edgeStyle=orthogonalEdgeStyle;rounded=0;orthogonalLoop=1;jettySize=auto;html=1;exitX=1;exitY=0.5;exitDx=0;exitDy=0;" parent="1" source="vfVgQjEAgglERbip78DY-41" edge="1">
          <mxGeometry relative="1" as="geometry">
            <mxPoint x="480" y="980" as="sourcePoint" />
            <mxPoint x="520" y="1040" as="targetPoint" />
          </mxGeometry>
        </mxCell>
        <mxCell id="vfVgQjEAgglERbip78DY-52" style="edgeStyle=orthogonalEdgeStyle;rounded=0;orthogonalLoop=1;jettySize=auto;html=1;exitX=1;exitY=0.5;exitDx=0;exitDy=0;entryX=0;entryY=0.5;entryDx=0;entryDy=0;" parent="1" source="vfVgQjEAgglERbip78DY-53" target="vfVgQjEAgglERbip78DY-61" edge="1">
          <mxGeometry relative="1" as="geometry" />
        </mxCell>
        <mxCell id="vfVgQjEAgglERbip78DY-53" value="修改个人信息" style="rounded=1;whiteSpace=wrap;html=1;fontSize=15;fillColor=#d5e8d4;strokeColor=#82b366;" parent="1" vertex="1">
          <mxGeometry x="350" y="1150" width="120" height="40" as="geometry" />
        </mxCell>
        <mxCell id="vfVgQjEAgglERbip78DY-54" value="UserCF算法" style="rounded=1;whiteSpace=wrap;html=1;fontSize=15;fillColor=#fff2cc;strokeColor=#d6b656;" parent="1" vertex="1">
          <mxGeometry x="681" y="640" width="120" height="40" as="geometry" />
        </mxCell>
        <mxCell id="vfVgQjEAgglERbip78DY-55" value="ItemCF算法" style="rounded=1;whiteSpace=wrap;html=1;fontSize=15;fillColor=#fff2cc;strokeColor=#d6b656;" parent="1" vertex="1">
          <mxGeometry x="681" y="690" width="120" height="40" as="geometry" />
        </mxCell>
        <mxCell id="vfVgQjEAgglERbip78DY-56" style="edgeStyle=orthogonalEdgeStyle;rounded=0;orthogonalLoop=1;jettySize=auto;html=1;exitX=1;exitY=0.5;exitDx=0;exitDy=0;entryX=0;entryY=0.5;entryDx=0;entryDy=0;" parent="1" source="vfVgQjEAgglERbip78DY-57" target="vfVgQjEAgglERbip78DY-58" edge="1">
          <mxGeometry relative="1" as="geometry" />
        </mxCell>
        <mxCell id="vfVgQjEAgglERbip78DY-57" value="充值" style="rounded=1;whiteSpace=wrap;html=1;fontSize=15;fillColor=#fff2cc;strokeColor=#d6b656;" parent="1" vertex="1">
          <mxGeometry x="350" y="1090" width="120" height="40" as="geometry" />
        </mxCell>
        <mxCell id="vfVgQjEAgglERbip78DY-58" value="支付宝沙箱支付" style="rounded=1;whiteSpace=wrap;html=1;fontSize=15;fillColor=#fff2cc;strokeColor=#d6b656;" parent="1" vertex="1">
          <mxGeometry x="520" y="1090" width="120" height="40" as="geometry" />
        </mxCell>
        <mxCell id="vfVgQjEAgglERbip78DY-80" style="edgeStyle=orthogonalEdgeStyle;rounded=0;orthogonalLoop=1;jettySize=auto;html=1;exitX=1;exitY=0.5;exitDx=0;exitDy=0;entryX=0;entryY=0.5;entryDx=0;entryDy=0;" parent="1" source="vfVgQjEAgglERbip78DY-60" target="vfVgQjEAgglERbip78DY-76" edge="1">
          <mxGeometry relative="1" as="geometry" />
        </mxCell>
        <mxCell id="vfVgQjEAgglERbip78DY-81" style="edgeStyle=orthogonalEdgeStyle;rounded=0;orthogonalLoop=1;jettySize=auto;html=1;exitX=1;exitY=0.5;exitDx=0;exitDy=0;entryX=0;entryY=0.5;entryDx=0;entryDy=0;" parent="1" source="vfVgQjEAgglERbip78DY-60" target="vfVgQjEAgglERbip78DY-77" edge="1">
          <mxGeometry relative="1" as="geometry" />
        </mxCell>
        <mxCell id="vfVgQjEAgglERbip78DY-82" style="edgeStyle=orthogonalEdgeStyle;rounded=0;orthogonalLoop=1;jettySize=auto;html=1;exitX=1;exitY=0.5;exitDx=0;exitDy=0;entryX=0;entryY=0.5;entryDx=0;entryDy=0;" parent="1" source="vfVgQjEAgglERbip78DY-60" target="vfVgQjEAgglERbip78DY-78" edge="1">
          <mxGeometry relative="1" as="geometry" />
        </mxCell>
        <mxCell id="vfVgQjEAgglERbip78DY-60" value="多种分析图" style="rounded=1;whiteSpace=wrap;html=1;fontSize=15;fillColor=#d5e8d4;strokeColor=#82b366;" parent="1" vertex="1">
          <mxGeometry x="690" y="810" width="120" height="35" as="geometry" />
        </mxCell>
        <mxCell id="vfVgQjEAgglERbip78DY-61" value="阿里短信验证码修改密码" style="rounded=1;whiteSpace=wrap;html=1;fontSize=15;fillColor=#fff2cc;strokeColor=#d6b656;" parent="1" vertex="1">
          <mxGeometry x="520" y="1150" width="120" height="40" as="geometry" />
        </mxCell>
        <mxCell id="vfVgQjEAgglERbip78DY-69" style="edgeStyle=orthogonalEdgeStyle;rounded=0;orthogonalLoop=1;jettySize=auto;html=1;exitX=0.5;exitY=0;exitDx=0;exitDy=0;entryX=0.5;entryY=1;entryDx=0;entryDy=0;" parent="1" source="vfVgQjEAgglERbip78DY-67" target="vfVgQjEAgglERbip78DY-38" edge="1">
          <mxGeometry relative="1" as="geometry" />
        </mxCell>
        <mxCell id="vfVgQjEAgglERbip78DY-67" value="搜索" style="rounded=1;whiteSpace=wrap;html=1;fontSize=15;fillColor=#d5e8d4;strokeColor=#82b366;" parent="1" vertex="1">
          <mxGeometry x="520" y="800" width="120" height="40" as="geometry" />
        </mxCell>
        <mxCell id="vfVgQjEAgglERbip78DY-71" value="可交互面积图" style="rounded=1;whiteSpace=wrap;html=1;fontSize=15;fillColor=#d5e8d4;strokeColor=#82b366;" parent="1" vertex="1">
          <mxGeometry x="690" y="860" width="120" height="35" as="geometry" />
        </mxCell>
        <mxCell id="vfVgQjEAgglERbip78DY-72" value="动态时间轴图" style="rounded=1;whiteSpace=wrap;html=1;fontSize=15;fillColor=#d5e8d4;strokeColor=#82b366;" parent="1" vertex="1">
          <mxGeometry x="690" y="905" width="120" height="35" as="geometry" />
        </mxCell>
        <mxCell id="vfVgQjEAgglERbip78DY-76" value="柱、饼、面积图" style="rounded=1;whiteSpace=wrap;html=1;fontSize=15;fillColor=#d5e8d4;strokeColor=#82b366;" parent="1" vertex="1">
          <mxGeometry x="860" y="810" width="120" height="35" as="geometry" />
        </mxCell>
        <mxCell id="vfVgQjEAgglERbip78DY-77" value="评分散点图" style="rounded=1;whiteSpace=wrap;html=1;fontSize=15;fillColor=#d5e8d4;strokeColor=#82b366;" parent="1" vertex="1">
          <mxGeometry x="860" y="860" width="120" height="35" as="geometry" />
        </mxCell>
        <mxCell id="vfVgQjEAgglERbip78DY-78" value="动态面积图" style="rounded=1;whiteSpace=wrap;html=1;fontSize=15;fillColor=#d5e8d4;strokeColor=#82b366;" parent="1" vertex="1">
          <mxGeometry x="860" y="905" width="120" height="35" as="geometry" />
        </mxCell>
        <mxCell id="shGuZ6Rk-x5DVHjVjzCF-1" style="edgeStyle=orthogonalEdgeStyle;rounded=0;orthogonalLoop=1;jettySize=auto;html=1;exitX=1;exitY=0.5;exitDx=0;exitDy=0;entryX=0;entryY=0.5;entryDx=0;entryDy=0;" edge="1" parent="1" source="shGuZ6Rk-x5DVHjVjzCF-10" target="shGuZ6Rk-x5DVHjVjzCF-14">
          <mxGeometry relative="1" as="geometry" />
        </mxCell>
        <mxCell id="shGuZ6Rk-x5DVHjVjzCF-2" style="edgeStyle=orthogonalEdgeStyle;rounded=0;orthogonalLoop=1;jettySize=auto;html=1;exitX=1;exitY=0.5;exitDx=0;exitDy=0;entryX=0;entryY=0.5;entryDx=0;entryDy=0;" edge="1" parent="1" source="shGuZ6Rk-x5DVHjVjzCF-10" target="shGuZ6Rk-x5DVHjVjzCF-13">
          <mxGeometry relative="1" as="geometry" />
        </mxCell>
        <mxCell id="shGuZ6Rk-x5DVHjVjzCF-3" style="edgeStyle=orthogonalEdgeStyle;rounded=0;orthogonalLoop=1;jettySize=auto;html=1;exitX=1;exitY=0.5;exitDx=0;exitDy=0;entryX=0;entryY=0.5;entryDx=0;entryDy=0;" edge="1" parent="1" source="shGuZ6Rk-x5DVHjVjzCF-10" target="shGuZ6Rk-x5DVHjVjzCF-16">
          <mxGeometry relative="1" as="geometry" />
        </mxCell>
        <mxCell id="shGuZ6Rk-x5DVHjVjzCF-4" style="edgeStyle=orthogonalEdgeStyle;rounded=0;orthogonalLoop=1;jettySize=auto;html=1;exitX=1;exitY=0.5;exitDx=0;exitDy=0;entryX=0;entryY=0.5;entryDx=0;entryDy=0;" edge="1" parent="1" source="shGuZ6Rk-x5DVHjVjzCF-10" target="shGuZ6Rk-x5DVHjVjzCF-20">
          <mxGeometry relative="1" as="geometry" />
        </mxCell>
        <mxCell id="shGuZ6Rk-x5DVHjVjzCF-5" style="edgeStyle=orthogonalEdgeStyle;rounded=0;orthogonalLoop=1;jettySize=auto;html=1;exitX=1;exitY=0.5;exitDx=0;exitDy=0;entryX=0;entryY=0.5;entryDx=0;entryDy=0;" edge="1" parent="1" source="shGuZ6Rk-x5DVHjVjzCF-10" target="shGuZ6Rk-x5DVHjVjzCF-21">
          <mxGeometry relative="1" as="geometry" />
        </mxCell>
        <mxCell id="shGuZ6Rk-x5DVHjVjzCF-6" style="edgeStyle=orthogonalEdgeStyle;rounded=0;orthogonalLoop=1;jettySize=auto;html=1;exitX=1;exitY=0.5;exitDx=0;exitDy=0;entryX=0;entryY=0.5;entryDx=0;entryDy=0;" edge="1" parent="1" source="shGuZ6Rk-x5DVHjVjzCF-10" target="shGuZ6Rk-x5DVHjVjzCF-28">
          <mxGeometry relative="1" as="geometry" />
        </mxCell>
        <mxCell id="shGuZ6Rk-x5DVHjVjzCF-7" style="edgeStyle=orthogonalEdgeStyle;rounded=0;orthogonalLoop=1;jettySize=auto;html=1;exitX=1;exitY=0.5;exitDx=0;exitDy=0;entryX=0;entryY=0.5;entryDx=0;entryDy=0;" edge="1" parent="1" source="shGuZ6Rk-x5DVHjVjzCF-10" target="shGuZ6Rk-x5DVHjVjzCF-35">
          <mxGeometry relative="1" as="geometry" />
        </mxCell>
        <mxCell id="shGuZ6Rk-x5DVHjVjzCF-8" style="edgeStyle=orthogonalEdgeStyle;rounded=0;orthogonalLoop=1;jettySize=auto;html=1;exitX=1;exitY=0.5;exitDx=0;exitDy=0;entryX=0;entryY=0.5;entryDx=0;entryDy=0;" edge="1" parent="1" source="shGuZ6Rk-x5DVHjVjzCF-10" target="shGuZ6Rk-x5DVHjVjzCF-39">
          <mxGeometry relative="1" as="geometry" />
        </mxCell>
        <mxCell id="shGuZ6Rk-x5DVHjVjzCF-9" style="edgeStyle=orthogonalEdgeStyle;rounded=0;orthogonalLoop=1;jettySize=auto;html=1;exitX=1;exitY=0.5;exitDx=0;exitDy=0;entryX=0;entryY=0.5;entryDx=0;entryDy=0;fontSize=15;" edge="1" parent="1" source="shGuZ6Rk-x5DVHjVjzCF-10" target="shGuZ6Rk-x5DVHjVjzCF-49">
          <mxGeometry relative="1" as="geometry" />
        </mxCell>
        <mxCell id="shGuZ6Rk-x5DVHjVjzCF-10" value="豆瓣图书大数据&lt;br&gt;功能模块" style="rounded=1;whiteSpace=wrap;html=1;fontSize=15;fillColor=#008a00;strokeColor=#005700;fontColor=#ffffff;" vertex="1" parent="1">
          <mxGeometry x="50" y="1530" width="120" height="60" as="geometry" />
        </mxCell>
        <mxCell id="shGuZ6Rk-x5DVHjVjzCF-11" style="edgeStyle=orthogonalEdgeStyle;rounded=0;orthogonalLoop=1;jettySize=auto;html=1;exitX=1;exitY=0.5;exitDx=0;exitDy=0;entryX=0;entryY=0.5;entryDx=0;entryDy=0;" edge="1" parent="1" source="shGuZ6Rk-x5DVHjVjzCF-13" target="shGuZ6Rk-x5DVHjVjzCF-18">
          <mxGeometry relative="1" as="geometry" />
        </mxCell>
        <mxCell id="shGuZ6Rk-x5DVHjVjzCF-12" style="edgeStyle=orthogonalEdgeStyle;rounded=0;orthogonalLoop=1;jettySize=auto;html=1;exitX=1;exitY=0.5;exitDx=0;exitDy=0;entryX=0;entryY=0.5;entryDx=0;entryDy=0;" edge="1" parent="1" source="shGuZ6Rk-x5DVHjVjzCF-13" target="shGuZ6Rk-x5DVHjVjzCF-31">
          <mxGeometry relative="1" as="geometry" />
        </mxCell>
        <mxCell id="shGuZ6Rk-x5DVHjVjzCF-13" value="首页" style="rounded=1;whiteSpace=wrap;html=1;fontSize=15;fillColor=#d5e8d4;strokeColor=#82b366;" vertex="1" parent="1">
          <mxGeometry x="250" y="1410" width="120" height="40" as="geometry" />
        </mxCell>
        <mxCell id="shGuZ6Rk-x5DVHjVjzCF-14" value="登录与注册" style="rounded=1;whiteSpace=wrap;html=1;fontSize=15;fillColor=#d5e8d4;strokeColor=#82b366;" vertex="1" parent="1">
          <mxGeometry x="250" y="1340" width="120" height="40" as="geometry" />
        </mxCell>
        <mxCell id="shGuZ6Rk-x5DVHjVjzCF-15" style="edgeStyle=orthogonalEdgeStyle;rounded=0;orthogonalLoop=1;jettySize=auto;html=1;exitX=1;exitY=0.5;exitDx=0;exitDy=0;entryX=0;entryY=0.5;entryDx=0;entryDy=0;" edge="1" parent="1" source="shGuZ6Rk-x5DVHjVjzCF-16" target="shGuZ6Rk-x5DVHjVjzCF-26">
          <mxGeometry relative="1" as="geometry" />
        </mxCell>
        <mxCell id="shGuZ6Rk-x5DVHjVjzCF-16" value="图书分析" style="rounded=1;whiteSpace=wrap;html=1;fontSize=15;fillColor=#d5e8d4;strokeColor=#82b366;" vertex="1" parent="1">
          <mxGeometry x="250" y="1540" width="120" height="40" as="geometry" />
        </mxCell>
        <mxCell id="shGuZ6Rk-x5DVHjVjzCF-17" style="edgeStyle=orthogonalEdgeStyle;rounded=0;orthogonalLoop=1;jettySize=auto;html=1;exitX=1;exitY=0.5;exitDx=0;exitDy=0;entryX=0;entryY=0.5;entryDx=0;entryDy=0;" edge="1" parent="1" source="shGuZ6Rk-x5DVHjVjzCF-18" target="shGuZ6Rk-x5DVHjVjzCF-42">
          <mxGeometry relative="1" as="geometry" />
        </mxCell>
        <mxCell id="shGuZ6Rk-x5DVHjVjzCF-18" value="图书卡片" style="rounded=1;whiteSpace=wrap;html=1;fontSize=15;fillColor=#d5e8d4;strokeColor=#82b366;" vertex="1" parent="1">
          <mxGeometry x="420" y="1410" width="120" height="40" as="geometry" />
        </mxCell>
        <mxCell id="shGuZ6Rk-x5DVHjVjzCF-19" style="edgeStyle=orthogonalEdgeStyle;rounded=0;orthogonalLoop=1;jettySize=auto;html=1;exitX=1;exitY=0.5;exitDx=0;exitDy=0;entryX=0;entryY=0.5;entryDx=0;entryDy=0;" edge="1" parent="1" source="shGuZ6Rk-x5DVHjVjzCF-20" target="shGuZ6Rk-x5DVHjVjzCF-22">
          <mxGeometry relative="1" as="geometry" />
        </mxCell>
        <mxCell id="shGuZ6Rk-x5DVHjVjzCF-20" value="图书摘要" style="rounded=1;whiteSpace=wrap;html=1;fontSize=15;fillColor=#d5e8d4;strokeColor=#82b366;" vertex="1" parent="1">
          <mxGeometry x="250" y="1610" width="120" height="40" as="geometry" />
        </mxCell>
        <mxCell id="shGuZ6Rk-x5DVHjVjzCF-21" value="身份证识别" style="rounded=1;whiteSpace=wrap;html=1;fontSize=15;fillColor=#fff2cc;strokeColor=#d6b656;" vertex="1" parent="1">
          <mxGeometry x="250" y="1730" width="120" height="40" as="geometry" />
        </mxCell>
        <mxCell id="shGuZ6Rk-x5DVHjVjzCF-22" value="词云" style="rounded=1;whiteSpace=wrap;html=1;fontSize=15;fillColor=#d5e8d4;strokeColor=#82b366;" vertex="1" parent="1">
          <mxGeometry x="420" y="1610" width="120" height="40" as="geometry" />
        </mxCell>
        <mxCell id="shGuZ6Rk-x5DVHjVjzCF-23" style="edgeStyle=orthogonalEdgeStyle;rounded=0;orthogonalLoop=1;jettySize=auto;html=1;exitX=1;exitY=0.5;exitDx=0;exitDy=0;entryX=0;entryY=0.5;entryDx=0;entryDy=0;" edge="1" parent="1" source="shGuZ6Rk-x5DVHjVjzCF-26" target="shGuZ6Rk-x5DVHjVjzCF-46">
          <mxGeometry relative="1" as="geometry" />
        </mxCell>
        <mxCell id="shGuZ6Rk-x5DVHjVjzCF-24" style="edgeStyle=orthogonalEdgeStyle;rounded=0;orthogonalLoop=1;jettySize=auto;html=1;exitX=1;exitY=0.5;exitDx=0;exitDy=0;entryX=0;entryY=0.5;entryDx=0;entryDy=0;" edge="1" parent="1" source="shGuZ6Rk-x5DVHjVjzCF-26" target="shGuZ6Rk-x5DVHjVjzCF-54">
          <mxGeometry relative="1" as="geometry" />
        </mxCell>
        <mxCell id="shGuZ6Rk-x5DVHjVjzCF-25" style="edgeStyle=orthogonalEdgeStyle;rounded=0;orthogonalLoop=1;jettySize=auto;html=1;exitX=1;exitY=0.5;exitDx=0;exitDy=0;entryX=0;entryY=0.5;entryDx=0;entryDy=0;" edge="1" parent="1" source="shGuZ6Rk-x5DVHjVjzCF-26" target="shGuZ6Rk-x5DVHjVjzCF-55">
          <mxGeometry relative="1" as="geometry" />
        </mxCell>
        <mxCell id="shGuZ6Rk-x5DVHjVjzCF-26" value="Echarts分析图" style="rounded=1;whiteSpace=wrap;html=1;fontSize=15;fillColor=#d5e8d4;strokeColor=#82b366;" vertex="1" parent="1">
          <mxGeometry x="420" y="1540" width="120" height="40" as="geometry" />
        </mxCell>
        <mxCell id="shGuZ6Rk-x5DVHjVjzCF-27" style="edgeStyle=orthogonalEdgeStyle;rounded=0;orthogonalLoop=1;jettySize=auto;html=1;exitX=1;exitY=0.5;exitDx=0;exitDy=0;entryX=0;entryY=0.5;entryDx=0;entryDy=0;" edge="1" parent="1" source="shGuZ6Rk-x5DVHjVjzCF-28" target="shGuZ6Rk-x5DVHjVjzCF-53">
          <mxGeometry relative="1" as="geometry" />
        </mxCell>
        <mxCell id="shGuZ6Rk-x5DVHjVjzCF-28" value="电影库" style="rounded=1;whiteSpace=wrap;html=1;fontSize=15;fillColor=#d5e8d4;strokeColor=#82b366;" vertex="1" parent="1">
          <mxGeometry x="250" y="1470" width="120" height="40" as="geometry" />
        </mxCell>
        <mxCell id="shGuZ6Rk-x5DVHjVjzCF-29" style="edgeStyle=orthogonalEdgeStyle;rounded=0;orthogonalLoop=1;jettySize=auto;html=1;exitX=1;exitY=0.5;exitDx=0;exitDy=0;entryX=0;entryY=0.5;entryDx=0;entryDy=0;" edge="1" parent="1" source="shGuZ6Rk-x5DVHjVjzCF-31" target="shGuZ6Rk-x5DVHjVjzCF-36">
          <mxGeometry relative="1" as="geometry" />
        </mxCell>
        <mxCell id="shGuZ6Rk-x5DVHjVjzCF-30" style="edgeStyle=orthogonalEdgeStyle;rounded=0;orthogonalLoop=1;jettySize=auto;html=1;exitX=1;exitY=0.5;exitDx=0;exitDy=0;entryX=0;entryY=0.75;entryDx=0;entryDy=0;" edge="1" parent="1" source="shGuZ6Rk-x5DVHjVjzCF-31" target="shGuZ6Rk-x5DVHjVjzCF-37">
          <mxGeometry relative="1" as="geometry" />
        </mxCell>
        <mxCell id="shGuZ6Rk-x5DVHjVjzCF-31" value="协同过滤&lt;br&gt;推荐算法" style="rounded=1;whiteSpace=wrap;html=1;fontSize=15;fillColor=#d5e8d4;strokeColor=#82b366;" vertex="1" parent="1">
          <mxGeometry x="420" y="1340" width="120" height="40" as="geometry" />
        </mxCell>
        <mxCell id="shGuZ6Rk-x5DVHjVjzCF-32" value="百度AI图像识别" style="rounded=1;whiteSpace=wrap;html=1;fontSize=15;fillColor=#fff2cc;strokeColor=#d6b656;" vertex="1" parent="1">
          <mxGeometry x="420" y="1730" width="120" height="40" as="geometry" />
        </mxCell>
        <mxCell id="shGuZ6Rk-x5DVHjVjzCF-33" style="edgeStyle=orthogonalEdgeStyle;rounded=0;orthogonalLoop=1;jettySize=auto;html=1;exitX=1;exitY=0.5;exitDx=0;exitDy=0;" edge="1" parent="1" source="shGuZ6Rk-x5DVHjVjzCF-21">
          <mxGeometry relative="1" as="geometry">
            <mxPoint x="380" y="1690" as="sourcePoint" />
            <mxPoint x="420" y="1750" as="targetPoint" />
          </mxGeometry>
        </mxCell>
        <mxCell id="shGuZ6Rk-x5DVHjVjzCF-34" style="edgeStyle=orthogonalEdgeStyle;rounded=0;orthogonalLoop=1;jettySize=auto;html=1;exitX=1;exitY=0.5;exitDx=0;exitDy=0;entryX=0;entryY=0.5;entryDx=0;entryDy=0;" edge="1" parent="1" source="shGuZ6Rk-x5DVHjVjzCF-35" target="shGuZ6Rk-x5DVHjVjzCF-47">
          <mxGeometry relative="1" as="geometry" />
        </mxCell>
        <mxCell id="shGuZ6Rk-x5DVHjVjzCF-35" value="修改个人信息" style="rounded=1;whiteSpace=wrap;html=1;fontSize=15;fillColor=#d5e8d4;strokeColor=#82b366;" vertex="1" parent="1">
          <mxGeometry x="250" y="1860" width="120" height="40" as="geometry" />
        </mxCell>
        <mxCell id="shGuZ6Rk-x5DVHjVjzCF-36" value="UserCF算法" style="rounded=1;whiteSpace=wrap;html=1;fontSize=15;fillColor=#fff2cc;strokeColor=#d6b656;" vertex="1" parent="1">
          <mxGeometry x="581" y="1310" width="120" height="40" as="geometry" />
        </mxCell>
        <mxCell id="shGuZ6Rk-x5DVHjVjzCF-37" value="ItemCF算法" style="rounded=1;whiteSpace=wrap;html=1;fontSize=15;fillColor=#fff2cc;strokeColor=#d6b656;" vertex="1" parent="1">
          <mxGeometry x="581" y="1360" width="120" height="40" as="geometry" />
        </mxCell>
        <mxCell id="shGuZ6Rk-x5DVHjVjzCF-38" style="edgeStyle=orthogonalEdgeStyle;rounded=0;orthogonalLoop=1;jettySize=auto;html=1;exitX=1;exitY=0.5;exitDx=0;exitDy=0;entryX=0;entryY=0.5;entryDx=0;entryDy=0;" edge="1" parent="1" source="shGuZ6Rk-x5DVHjVjzCF-39" target="shGuZ6Rk-x5DVHjVjzCF-40">
          <mxGeometry relative="1" as="geometry" />
        </mxCell>
        <mxCell id="shGuZ6Rk-x5DVHjVjzCF-39" value="充值" style="rounded=1;whiteSpace=wrap;html=1;fontSize=15;fillColor=#fff2cc;strokeColor=#d6b656;" vertex="1" parent="1">
          <mxGeometry x="250" y="1800" width="120" height="40" as="geometry" />
        </mxCell>
        <mxCell id="shGuZ6Rk-x5DVHjVjzCF-40" value="支付宝沙箱支付" style="rounded=1;whiteSpace=wrap;html=1;fontSize=15;fillColor=#fff2cc;strokeColor=#d6b656;" vertex="1" parent="1">
          <mxGeometry x="420" y="1800" width="120" height="40" as="geometry" />
        </mxCell>
        <mxCell id="shGuZ6Rk-x5DVHjVjzCF-41" value="" style="edgeStyle=orthogonalEdgeStyle;rounded=0;orthogonalLoop=1;jettySize=auto;html=1;" edge="1" parent="1" source="shGuZ6Rk-x5DVHjVjzCF-42" target="shGuZ6Rk-x5DVHjVjzCF-51">
          <mxGeometry relative="1" as="geometry" />
        </mxCell>
        <mxCell id="shGuZ6Rk-x5DVHjVjzCF-42" value="查看影评" style="rounded=1;whiteSpace=wrap;html=1;fontSize=15;fillColor=#0050ef;strokeColor=#001DBC;fontColor=#ffffff;" vertex="1" parent="1">
          <mxGeometry x="581" y="1410" width="120" height="40" as="geometry" />
        </mxCell>
        <mxCell id="shGuZ6Rk-x5DVHjVjzCF-43" style="edgeStyle=orthogonalEdgeStyle;rounded=0;orthogonalLoop=1;jettySize=auto;html=1;exitX=1;exitY=0.5;exitDx=0;exitDy=0;entryX=0;entryY=0.5;entryDx=0;entryDy=0;" edge="1" parent="1" source="shGuZ6Rk-x5DVHjVjzCF-46" target="shGuZ6Rk-x5DVHjVjzCF-56">
          <mxGeometry relative="1" as="geometry" />
        </mxCell>
        <mxCell id="shGuZ6Rk-x5DVHjVjzCF-44" style="edgeStyle=orthogonalEdgeStyle;rounded=0;orthogonalLoop=1;jettySize=auto;html=1;exitX=1;exitY=0.5;exitDx=0;exitDy=0;entryX=0;entryY=0.5;entryDx=0;entryDy=0;" edge="1" parent="1" source="shGuZ6Rk-x5DVHjVjzCF-46" target="shGuZ6Rk-x5DVHjVjzCF-57">
          <mxGeometry relative="1" as="geometry" />
        </mxCell>
        <mxCell id="shGuZ6Rk-x5DVHjVjzCF-45" style="edgeStyle=orthogonalEdgeStyle;rounded=0;orthogonalLoop=1;jettySize=auto;html=1;exitX=1;exitY=0.5;exitDx=0;exitDy=0;entryX=0;entryY=0.5;entryDx=0;entryDy=0;" edge="1" parent="1" source="shGuZ6Rk-x5DVHjVjzCF-46" target="shGuZ6Rk-x5DVHjVjzCF-58">
          <mxGeometry relative="1" as="geometry" />
        </mxCell>
        <mxCell id="shGuZ6Rk-x5DVHjVjzCF-46" value="多种分析图" style="rounded=1;whiteSpace=wrap;html=1;fontSize=15;fillColor=#d5e8d4;strokeColor=#82b366;" vertex="1" parent="1">
          <mxGeometry x="590" y="1480" width="120" height="35" as="geometry" />
        </mxCell>
        <mxCell id="shGuZ6Rk-x5DVHjVjzCF-47" value="阿里短信验证码修改密码" style="rounded=1;whiteSpace=wrap;html=1;fontSize=15;fillColor=#fff2cc;strokeColor=#d6b656;" vertex="1" parent="1">
          <mxGeometry x="420" y="1860" width="120" height="40" as="geometry" />
        </mxCell>
        <mxCell id="shGuZ6Rk-x5DVHjVjzCF-48" style="edgeStyle=orthogonalEdgeStyle;rounded=0;orthogonalLoop=1;jettySize=auto;html=1;exitX=1;exitY=0.5;exitDx=0;exitDy=0;entryX=0;entryY=0.5;entryDx=0;entryDy=0;fontSize=15;" edge="1" parent="1" source="shGuZ6Rk-x5DVHjVjzCF-49" target="shGuZ6Rk-x5DVHjVjzCF-50">
          <mxGeometry relative="1" as="geometry" />
        </mxCell>
        <mxCell id="shGuZ6Rk-x5DVHjVjzCF-49" value="情感分析" style="rounded=1;whiteSpace=wrap;html=1;fontSize=15;fillColor=#0050ef;strokeColor=#001DBC;fontColor=#ffffff;" vertex="1" parent="1">
          <mxGeometry x="250" y="1670" width="120" height="40" as="geometry" />
        </mxCell>
        <mxCell id="shGuZ6Rk-x5DVHjVjzCF-50" value="输入评论深度学习实时情感分析" style="rounded=1;whiteSpace=wrap;html=1;fontSize=15;fillColor=#0050ef;strokeColor=#001DBC;fontColor=#ffffff;" vertex="1" parent="1">
          <mxGeometry x="420" y="1670" width="120" height="40" as="geometry" />
        </mxCell>
        <mxCell id="shGuZ6Rk-x5DVHjVjzCF-51" value="LSTM/RNN模型&lt;br&gt;批量情感分析" style="rounded=1;whiteSpace=wrap;html=1;fontSize=15;fillColor=#0050ef;strokeColor=#001DBC;fontColor=#ffffff;" vertex="1" parent="1">
          <mxGeometry x="740" y="1410" width="120" height="40" as="geometry" />
        </mxCell>
        <mxCell id="shGuZ6Rk-x5DVHjVjzCF-52" style="edgeStyle=orthogonalEdgeStyle;rounded=0;orthogonalLoop=1;jettySize=auto;html=1;exitX=0.5;exitY=0;exitDx=0;exitDy=0;entryX=0.5;entryY=1;entryDx=0;entryDy=0;" edge="1" parent="1" source="shGuZ6Rk-x5DVHjVjzCF-53" target="shGuZ6Rk-x5DVHjVjzCF-18">
          <mxGeometry relative="1" as="geometry" />
        </mxCell>
        <mxCell id="shGuZ6Rk-x5DVHjVjzCF-53" value="搜索" style="rounded=1;whiteSpace=wrap;html=1;fontSize=15;fillColor=#d5e8d4;strokeColor=#82b366;" vertex="1" parent="1">
          <mxGeometry x="420" y="1470" width="120" height="40" as="geometry" />
        </mxCell>
        <mxCell id="shGuZ6Rk-x5DVHjVjzCF-54" value="可交互面积图" style="rounded=1;whiteSpace=wrap;html=1;fontSize=15;fillColor=#d5e8d4;strokeColor=#82b366;" vertex="1" parent="1">
          <mxGeometry x="590" y="1530" width="120" height="35" as="geometry" />
        </mxCell>
        <mxCell id="shGuZ6Rk-x5DVHjVjzCF-55" value="动态时间轴图" style="rounded=1;whiteSpace=wrap;html=1;fontSize=15;fillColor=#d5e8d4;strokeColor=#82b366;" vertex="1" parent="1">
          <mxGeometry x="590" y="1575" width="120" height="35" as="geometry" />
        </mxCell>
        <mxCell id="shGuZ6Rk-x5DVHjVjzCF-56" value="柱、饼、面积图" style="rounded=1;whiteSpace=wrap;html=1;fontSize=15;fillColor=#d5e8d4;strokeColor=#82b366;" vertex="1" parent="1">
          <mxGeometry x="760" y="1480" width="120" height="35" as="geometry" />
        </mxCell>
        <mxCell id="shGuZ6Rk-x5DVHjVjzCF-57" value="评分散点图" style="rounded=1;whiteSpace=wrap;html=1;fontSize=15;fillColor=#d5e8d4;strokeColor=#82b366;" vertex="1" parent="1">
          <mxGeometry x="760" y="1530" width="120" height="35" as="geometry" />
        </mxCell>
        <mxCell id="shGuZ6Rk-x5DVHjVjzCF-58" value="动态面积图" style="rounded=1;whiteSpace=wrap;html=1;fontSize=15;fillColor=#d5e8d4;strokeColor=#82b366;" vertex="1" parent="1">
          <mxGeometry x="760" y="1575" width="120" height="35" as="geometry" />
        </mxCell>
      </root>
    </mxGraphModel>
  </diagram>
</mxfile>
